<?xml version="1.0" encoding="UTF-8"?>
<svg version="1.1" xmlns="http://www.w3.org/2000/svg" width="500" height="500">
<path d="M0 0 C165 0 330 0 500 0 C500 165 500 330 500 500 C335 500 170 500 0 500 C0 335 0 170 0 0 Z " fill="#FEFEFE" transform="translate(0,0)"/>
<path d="M0 0 C0.91009827 -0.00018127 1.82019653 -0.00036255 2.75787354 -0.00054932 C18.73356818 0.04448017 33.12631024 2.04284065 48.5 6.5625 C50.3386797 7.05127514 52.17849908 7.53578678 54.01953125 8.015625 C64.23890142 10.76900094 73.50599026 14.54594842 82.78369141 19.625 C84.34826185 20.479616 85.92924794 21.30400347 87.51171875 22.125 C97.85789405 27.55637306 107.47394745 34.15401959 116.5 41.5625 C117.34304688 42.23539063 118.18609375 42.90828125 119.0546875 43.6015625 C119.88226563 44.28992188 120.70984375 44.97828125 121.5625 45.6875 C122.31660156 46.30882812 123.07070313 46.93015625 123.84765625 47.5703125 C125.5 49.5625 125.5 49.5625 126.0078125 52.0234375 C125.32216022 55.4516989 123.85953313 56.7024432 121.3125 59.0625 C120.49007813 59.84109375 119.66765625 60.6196875 118.8203125 61.421875 C118.05460937 62.12828125 117.28890625 62.8346875 116.5 63.5625 C114.00958805 65.99756947 111.67465886 68.34417643 109.5 71.0625 C107.33112629 73.77359214 104.96586452 76.11789293 102.5 78.5625 C101.6028125 79.48289062 100.705625 80.40328125 99.78125 81.3515625 C98.8634375 82.28742188 97.945625 83.22328125 97 84.1875 C96.0821875 85.12851563 95.164375 86.06953125 94.21875 87.0390625 C90.70789426 90.29770159 87.99246134 92.30418938 83.25 93.125 C77.92723785 92.32658568 74.79856374 89.67196401 70.5 86.5625 C49.14780257 72.23405172 27.55825177 63.97495948 1.62451172 64.11645508 C-0.73429513 64.12494348 -3.09065014 64.09611341 -5.44921875 64.06445312 C-26.43801475 63.96733897 -45.45025099 69.83532881 -63.5 80.5625 C-64.40234375 81.08457031 -65.3046875 81.60664063 -66.234375 82.14453125 C-75.46116866 87.70927827 -82.94514807 94.94701523 -90.5 102.5625 C-91.17160156 103.22507812 -91.84320313 103.88765625 -92.53515625 104.5703125 C-97.7578049 110.02440801 -101.84523486 115.87948291 -105.875 122.25 C-106.38683838 123.05775879 -106.89867676 123.86551758 -107.42602539 124.69775391 C-110.22348064 129.21283091 -112.55284748 133.62196376 -114.5 138.5625 C-114.93441406 139.63371094 -115.36882812 140.70492187 -115.81640625 141.80859375 C-119.19584029 150.46375867 -121.55836396 158.26103868 -122.25390625 167.55859375 C-122.5 169.5625 -122.5 169.5625 -123.5 170.5625 C-125.34883721 195.280816 -121.97883493 219.45511421 -110.5 241.5625 C-110.5 242.5525 -110.5 243.5425 -110.5 244.5625 C-125.14811858 241.50221232 -138.22421245 229.67629159 -149.390625 220.27734375 C-151.3839275 218.53003516 -151.3839275 218.53003516 -153.5 217.5625 C-151.94052267 219.77302126 -150.37753183 221.98091611 -148.8125 224.1875 C-148.37744141 224.80496094 -147.94238281 225.42242187 -147.49414062 226.05859375 C-124.31016875 258.6878875 -80.95973575 276.02595604 -42.5 282.5625 C-24.47446358 285.53106554 -6.61833346 286.00471669 11.59735107 285.8850708 C14.42542854 285.8714445 17.2533512 285.87685336 20.08144665 285.88219929 C23.48533603 285.8863356 26.88909408 285.8743973 30.29296875 285.86328125 C32.17558662 285.86464836 32.17558662 285.86464836 34.09623718 285.86604309 C35.25968155 285.85651108 36.42312592 285.84697906 37.62182617 285.8371582 C39.14872322 285.83024712 39.14872322 285.83024712 40.70646667 285.82319641 C43.66021301 285.5475487 45.79744613 284.74729165 48.5 283.5625 C50.67878894 283.14670714 52.86984625 282.79280509 55.06640625 282.484375 C56.34741211 282.29601074 57.62841797 282.10764648 58.94824219 281.91357422 C59.9563092 281.76707428 59.9563092 281.76707428 60.98474121 281.61761475 C73.53585304 279.77450893 85.5287519 277.23917863 97.57275391 273.18652344 C100.16383434 272.34755693 102.79156554 271.70416742 105.4375 271.0625 C111.81121989 269.35489903 117.5948472 266.46052533 123.5 263.5625 C124.63695312 263.02496094 125.77390625 262.48742187 126.9453125 261.93359375 C138.054497 256.57782359 149.05486938 250.55413485 157.8515625 241.77734375 C159.5 240.5625 159.5 240.5625 163.5 240.5625 C166.68559524 245.58015431 167.97027483 249.26420705 167.15234375 255.19140625 C156.8282646 292.71665202 120.025026 327.01549112 87.5 345.5625 C78.73733447 350.5137813 69.92065936 354.97483957 60.5 358.5625 C58.85257812 359.19285156 58.85257812 359.19285156 57.171875 359.8359375 C37.59700205 367.07776269 18.74567725 369.98755056 -2 369.9375 C-3.16705978 369.93768127 -3.16705978 369.93768127 -4.35769653 369.93786621 C-22.64239843 369.8976857 -40.18429419 367.69374213 -57.5 361.5625 C-58.75167969 361.15902344 -60.00335938 360.75554687 -61.29296875 360.33984375 C-81.0609056 353.96675967 -99.28015709 344.5631725 -115.5 331.5625 C-116.05880859 331.11793457 -116.61761719 330.67336914 -117.19335938 330.21533203 C-139.60957917 312.23373954 -162.04918018 287.65029315 -172 260.25 C-173.5487692 256.05864335 -175.18969088 251.95950996 -177 247.875 C-189.4333882 217.84719454 -191.75525399 180.18832909 -184.5 148.5625 C-184.32839355 147.79615234 -184.15678711 147.02980469 -183.97998047 146.24023438 C-178.45009088 122.14395051 -168.98246503 99.67227393 -154.5 79.5625 C-153.81550781 78.593125 -153.13101563 77.62375 -152.42578125 76.625 C-127.7017005 42.53506461 -91.21139661 17.72816712 -50.75 6.375 C-49.91855469 6.1370874 -49.08710938 5.8991748 -48.23046875 5.65405273 C-32.34063284 1.3775179 -16.40348558 -0.05083608 0 0 Z " fill="#3277B4" transform="translate(243.5,62.4375)"/>
<path d="M0 0 C0.91009827 -0.00018127 1.82019653 -0.00036255 2.75787354 -0.00054932 C18.73356818 0.04448017 33.12631024 2.04284065 48.5 6.5625 C50.3386797 7.05127514 52.17849908 7.53578678 54.01953125 8.015625 C64.23890142 10.76900094 73.50599026 14.54594842 82.78369141 19.625 C84.34826185 20.479616 85.92924794 21.30400347 87.51171875 22.125 C97.85789405 27.55637306 107.47394745 34.15401959 116.5 41.5625 C117.34304688 42.23539063 118.18609375 42.90828125 119.0546875 43.6015625 C119.88226563 44.28992188 120.70984375 44.97828125 121.5625 45.6875 C122.31660156 46.30882812 123.07070313 46.93015625 123.84765625 47.5703125 C125.5 49.5625 125.5 49.5625 126.0078125 52.0234375 C125.32216022 55.4516989 123.85953313 56.7024432 121.3125 59.0625 C120.49007813 59.84109375 119.66765625 60.6196875 118.8203125 61.421875 C118.05460937 62.12828125 117.28890625 62.8346875 116.5 63.5625 C114.00958805 65.99756947 111.67465886 68.34417643 109.5 71.0625 C107.33112629 73.77359214 104.96586452 76.11789293 102.5 78.5625 C101.6028125 79.48289062 100.705625 80.40328125 99.78125 81.3515625 C98.8634375 82.28742188 97.945625 83.22328125 97 84.1875 C96.0821875 85.12851563 95.164375 86.06953125 94.21875 87.0390625 C90.70789426 90.29770159 87.99246134 92.30418938 83.25 93.125 C77.92723785 92.32658568 74.79856374 89.67196401 70.5 86.5625 C49.14780257 72.23405172 27.55825177 63.97495948 1.62451172 64.11645508 C-0.73429513 64.12494348 -3.09065014 64.09611341 -5.44921875 64.06445312 C-26.43801475 63.96733897 -45.45025099 69.83532881 -63.5 80.5625 C-64.40234375 81.08457031 -65.3046875 81.60664063 -66.234375 82.14453125 C-75.46116866 87.70927827 -82.94514807 94.94701523 -90.5 102.5625 C-91.17160156 103.22507812 -91.84320313 103.88765625 -92.53515625 104.5703125 C-97.7578049 110.02440801 -101.84523486 115.87948291 -105.875 122.25 C-106.38683838 123.05775879 -106.89867676 123.86551758 -107.42602539 124.69775391 C-110.22348064 129.21283091 -112.55284748 133.62196376 -114.5 138.5625 C-114.93441406 139.63371094 -115.36882812 140.70492187 -115.81640625 141.80859375 C-119.19584029 150.46375867 -121.55836396 158.26103868 -122.25390625 167.55859375 C-122.5 169.5625 -122.5 169.5625 -123.5 170.5625 C-125.34883721 195.280816 -121.97883493 219.45511421 -110.5 241.5625 C-110.5 242.5525 -110.5 243.5425 -110.5 244.5625 C-125.07460889 241.51756997 -138.13152517 229.79098922 -149.1953125 220.375 C-151.33864169 218.5354601 -151.33864169 218.5354601 -153.49389648 217.68115234 C-155.88157352 216.34972528 -156.59680893 215.23053706 -157.90234375 212.8515625 C-158.31540771 212.10696777 -158.72847168 211.36237305 -159.15405273 210.59521484 C-159.57759033 209.80066895 -160.00112793 209.00612305 -160.4375 208.1875 C-160.87843994 207.37619629 -161.31937988 206.56489258 -161.77368164 205.72900391 C-165.11343424 199.49669326 -167.99966505 193.17861266 -170.5 186.5625 C-170.78230469 185.90894531 -171.06460938 185.25539062 -171.35546875 184.58203125 C-176.43246046 172.49518296 -177.12888423 159.09407044 -177.4831543 146.16503906 C-177.56247262 143.56339804 -177.68984727 140.96680383 -177.81835938 138.3671875 C-178.24233216 126.96422705 -176.66473312 118.79148199 -171.5 108.5625 C-170.90119019 107.295271 -170.90119019 107.295271 -170.2902832 106.00244141 C-169.28725367 103.92639819 -168.22861085 101.89905295 -167.125 99.875 C-166.7434375 99.16641846 -166.361875 98.45783691 -165.96875 97.7277832 C-162.51535564 91.41204521 -158.68609172 85.41978337 -154.5 79.5625 C-153.81421875 78.59054688 -153.1284375 77.61859375 -152.421875 76.6171875 C-127.68340226 42.535047 -91.21745779 17.72986785 -50.75 6.375 C-49.91855469 6.1370874 -49.08710938 5.8991748 -48.23046875 5.65405273 C-32.34063284 1.3775179 -16.40348558 -0.05083608 0 0 Z " fill="#69A8D6" transform="translate(243.5,62.4375)"/>
<path d="M0 0 C1.0725 0.00515625 2.145 0.0103125 3.25 0.015625 C4.3225 0.01046875 5.395 0.0053125 6.5 0 C9.25 0.265625 9.25 0.265625 11.25 2.265625 C11.5015564 4.23660278 11.5015564 4.23660278 11.50537109 6.68017578 C11.51233002 7.59517853 11.51928894 8.51018127 11.52645874 9.45291138 C11.52546173 10.44556 11.52446472 11.43820862 11.5234375 12.4609375 C11.54373944 14.55990104 11.56459045 16.65885933 11.5859375 18.7578125 C11.60847629 22.06905531 11.6249813 25.38009044 11.63085938 28.69140625 C11.64042343 31.88580012 11.67426452 35.07925543 11.7109375 38.2734375 C11.70336929 39.74419235 11.70336929 39.74419235 11.69564819 41.24465942 C11.79666218 48.35744024 13.09637553 54.11200053 18.25 59.265625 C18.32347656 57.39970703 18.32347656 57.39970703 18.3984375 55.49609375 C19.48863569 30.21315255 19.48863569 30.21315255 25.25 23.265625 C25.78625 22.5025 26.3225 21.739375 26.875 20.953125 C30.73411625 18.21112135 34.59110396 17.98448472 39.25 18.265625 C58.19023347 23.11478116 72.19427227 39.64322057 81.78125 55.73828125 C82.2659375 56.57230469 82.750625 57.40632813 83.25 58.265625 C83.26981934 57.54906738 83.28963867 56.83250977 83.31005859 56.09423828 C83.40509519 52.8593187 83.51486019 49.62506406 83.625 46.390625 C83.6559375 45.26269531 83.686875 44.13476562 83.71875 42.97265625 C83.77675781 41.35810547 83.77675781 41.35810547 83.8359375 39.7109375 C83.8673584 38.71594238 83.8987793 37.72094727 83.93115234 36.69580078 C84.25 34.265625 84.25 34.265625 86.25 32.265625 C90.80555556 32.82118056 90.80555556 32.82118056 92.25 34.265625 C92.35165459 35.72598977 92.38567944 37.19114375 92.3918457 38.6550293 C92.40239738 40.05865974 92.40239738 40.05865974 92.41316223 41.49064636 C92.41732651 42.5133815 92.42149078 43.53611664 92.42578125 44.58984375 C92.44901415 46.75586872 92.47313279 48.92188434 92.49804688 51.08789062 C92.53290476 54.50176933 92.56234961 57.91531224 92.57592773 61.3293457 C92.54171162 78.18921362 92.54171162 78.18921362 96.30151367 94.50708008 C97.30218536 97.4173991 97.81893195 100.22337136 98.25 103.265625 C98.26213028 102.40784958 98.26213028 102.40784958 98.27450562 101.53274536 C98.36037948 95.59565501 98.45987473 89.65890519 98.56738281 83.72216797 C98.60573134 81.5047781 98.64057371 79.28732476 98.671875 77.06982422 C98.71739826 73.88746411 98.77541319 70.70554318 98.8359375 67.5234375 C98.84748871 66.52756622 98.85903992 65.53169495 98.87094116 64.50564575 C98.89081085 63.58484222 98.91068054 62.6640387 98.93115234 61.71533203 C98.94447601 60.9025882 98.95779968 60.08984436 98.9715271 59.25247192 C99.25 57.265625 99.25 57.265625 101.25 55.265625 C103.75 55.015625 103.75 55.015625 106.25 55.265625 C108.25 57.265625 108.25 57.265625 108.49723816 59.62538147 C108.49581314 60.61275803 108.49438812 61.60013458 108.49291992 62.61743164 C108.49599655 63.735215 108.49907318 64.85299835 108.50224304 66.00465393 C108.49146477 67.82186195 108.49146477 67.82186195 108.48046875 69.67578125 C108.48001053 70.9135582 108.47955231 72.15133514 108.4790802 73.42662048 C108.4752786 76.71920547 108.46225824 80.01159859 108.44561768 83.30413818 C108.43216164 86.65914147 108.43534184 90.0141113 108.43554688 93.36914062 C108.43063168 95.90885617 108.42480335 98.44857015 108.41796875 100.98828125 C108.41685593 102.2017775 108.4157431 103.41527374 108.41459656 104.6655426 C108.40821671 105.7801738 108.40183685 106.89480499 108.39526367 108.04321289 C108.39145187 109.02979385 108.38764008 110.01637482 108.38371277 111.03285217 C108.25 113.265625 108.25 113.265625 107.25 114.265625 C104.25 114.390625 104.25 114.390625 101.25 114.265625 C100.92 113.935625 100.59 113.605625 100.25 113.265625 C100.3221875 114.35617187 100.394375 115.44671875 100.46875 116.5703125 C102.82540299 153.90905564 102.82540299 153.90905564 95.6875 162.265625 C94.883125 162.925625 94.07875 163.585625 93.25 164.265625 C92.59 164.925625 91.93 165.585625 91.25 166.265625 C83.65465788 167.32005737 79.02992561 164.3903821 72.625 160.578125 C60.27245301 153.57246183 49.17390292 148.93708369 34.9074707 147.60327148 C28.91031692 146.89902903 25.2528121 144.81736218 21.25 140.265625 C13.41681394 126.16589009 17.36693674 105.79807695 18.25 90.265625 C19.57 89.935625 20.89 89.605625 22.25 89.265625 C22.25 87.615625 22.25 85.965625 22.25 84.265625 C21.26 84.265625 20.27 84.265625 19.25 84.265625 C19.0334375 82.71875 19.0334375 82.71875 18.8125 81.140625 C17.53817917 76.49643352 14.29104293 74.82625821 10.34375 72.4296875 C6.59502308 70.34550723 4.62337105 69.79704953 0.25 70.265625 C-2.30939179 71.4126434 -4.76114126 72.71235316 -7.2421875 74.01953125 C-13.63582654 77.19643289 -20.66028054 78.24351734 -27.75 77.265625 C-32.1923526 74.80815335 -33.77057946 71.84504117 -35.75 67.265625 C-36.25279484 64.60376997 -36.65446611 62.07035874 -36.9375 59.390625 C-37.01935547 58.70226562 -37.10121094 58.01390625 -37.18554688 57.3046875 C-37.38370738 55.62615143 -37.56827787 53.94602019 -37.75 52.265625 C-37.84087891 53.42191406 -37.84087891 53.42191406 -37.93359375 54.6015625 C-38.01738281 55.60445312 -38.10117188 56.60734375 -38.1875 57.640625 C-38.26871094 58.63835937 -38.34992188 59.63609375 -38.43359375 60.6640625 C-38.75 63.265625 -38.75 63.265625 -39.75 65.265625 C-43.45503641 64.66228191 -45.60968148 63.04088263 -48.5 60.703125 C-49.29921875 60.06246094 -50.0984375 59.42179687 -50.921875 58.76171875 C-51.52515625 58.26800781 -52.1284375 57.77429688 -52.75 57.265625 C-48.86828237 63.29441769 -45.11400563 68.2702617 -39.3515625 72.59765625 C-37.31736037 74.71620335 -37.0910983 76.39552647 -36.75 79.265625 C-41.39402363 81.12323445 -45.7938053 82.26876561 -50.75 81.265625 C-53.63390023 79.92828293 -56.32229146 78.42262109 -59.0390625 76.7734375 C-62.1807158 74.91675377 -62.1807158 74.91675377 -67.75 73.265625 C-64.12 76.235625 -60.49 79.205625 -56.75 82.265625 C-57.75 86.265625 -57.75 86.265625 -59.59765625 87.75 C-60.32855469 88.16765625 -61.05945313 88.5853125 -61.8125 89.015625 C-62.54597656 89.44359375 -63.27945313 89.8715625 -64.03515625 90.3125 C-64.60105469 90.62703125 -65.16695312 90.9415625 -65.75 91.265625 C-65.05777344 91.08386719 -64.36554688 90.90210938 -63.65234375 90.71484375 C-40.19219067 84.68753169 -40.19219067 84.68753169 -30.75 85.265625 C-29.75 88.265625 -29.75 88.265625 -30.6484375 90.1328125 C-34.66178896 95.5901211 -38.7378698 98.30661135 -44.75 101.265625 C-45.44351563 101.7915625 -46.13703125 102.3175 -46.8515625 102.859375 C-51.28726052 105.01146568 -55.69181247 104.83863604 -60.5625 104.953125 C-61.54154297 104.98728516 -62.52058594 105.02144531 -63.52929688 105.05664062 C-65.93580324 105.13881401 -68.34288225 105.20390403 -70.75 105.265625 C-67.12 106.255625 -63.49 107.245625 -59.75 108.265625 C-60.80834348 112.4989989 -61.70319462 113.59038861 -64.625 116.640625 C-69.20116663 121.64324443 -71.93589221 125.34114013 -71.75 132.265625 C-71.22212891 131.41291016 -71.22212891 131.41291016 -70.68359375 130.54296875 C-62.69342514 118.04659539 -51.52719097 109.84333105 -37.75 104.265625 C-36.76 104.265625 -35.77 104.265625 -34.75 104.265625 C-35.46993243 114.52466216 -40.90005114 121.09870202 -46.75 129.265625 C-46.05132812 128.688125 -45.35265625 128.110625 -44.6328125 127.515625 C-43.72273438 126.773125 -42.81265625 126.030625 -41.875 125.265625 C-40.97007812 124.523125 -40.06515625 123.780625 -39.1328125 123.015625 C-36.75 121.265625 -36.75 121.265625 -34.75 121.265625 C-34.75 124.895625 -34.75 128.525625 -34.75 132.265625 C-32.3212194 126.30407262 -31.36146503 120.74723131 -30.75 114.390625 C-29.47928222 101.70423604 -27.41480291 92.03956639 -17.5625 83.265625 C-14.75 81.265625 -14.75 81.265625 -11.75 81.265625 C-5.27429983 127.97868548 -5.27429983 127.97868548 -14.23828125 141.4375 C-19.23238887 147.47688596 -26.28427159 147.71492208 -33.61572266 148.48901367 C-44.35117024 149.67949146 -58.96587409 153.66969194 -66.30859375 162.04296875 C-67.02208984 162.64818359 -67.02208984 162.64818359 -67.75 163.265625 C-70.03125 163.0703125 -70.03125 163.0703125 -72.75 162.265625 C-73.7915625 161.97945312 -74.833125 161.69328125 -75.90625 161.3984375 C-77.0096875 161.06585938 -78.113125 160.73328125 -79.25 160.390625 C-80.3534375 160.06320312 -81.456875 159.73578125 -82.59375 159.3984375 C-85.75191428 158.26493794 -88.14332671 157.38584166 -90.75 155.265625 C-93.62665685 148.90395487 -93.09423226 141.88036972 -93.0625 135.015625 C-93.05758545 133.76724854 -93.0526709 132.51887207 -93.04760742 131.23266602 C-92.91902733 120.99307518 -91.99738161 111.25060672 -89.75 101.265625 C-89.57307617 100.47897461 -89.39615234 99.69232422 -89.21386719 98.88183594 C-82.51209988 70.00289046 -69.6315936 40.19722267 -44 23.203125 C-36.55684159 18.81303015 -30.24159387 17.27608348 -21.75 19.265625 C-17.18215241 21.98689591 -14.66775058 25.23704808 -13.125 30.328125 C-10.99259087 39.80549893 -11.5798521 49.61445811 -11.75 59.265625 C-7.350148 55.40937842 -7.350148 55.40937842 -5.60523987 50.14038086 C-5.59097206 48.82372437 -5.59097206 48.82372437 -5.57641602 47.48046875 C-5.56292618 46.4860376 -5.54943634 45.49160645 -5.53553772 44.46704102 C-5.52509933 43.38994873 -5.51466095 42.31285645 -5.50390625 41.203125 C-5.47097858 38.94010014 -5.43776676 36.6770794 -5.40429688 34.4140625 C-5.3567808 30.83238467 -5.31233716 27.25072483 -5.27319336 23.66894531 C-5.23362308 20.22182895 -5.18205198 16.77505494 -5.12890625 13.328125 C-5.1204921 12.25103271 -5.11207794 11.17394043 -5.10340881 10.06420898 C-5.08676682 9.06977783 -5.07012482 8.07534668 -5.05297852 7.05078125 C-5.04267105 6.17301025 -5.03236359 5.29523926 -5.02174377 4.39086914 C-4.58083911 0.94265745 -3.35072802 0.32364987 0 0 Z " fill="#377AB2" transform="translate(241.75,159.734375)"/>
<path d="M0 0 C1.53423553 3.06847106 0.39308118 5.33423019 -0.375 8.625 C-5.72246189 31.66406476 -3.68633465 55.23830961 2 78 C2.18159668 78.73992187 2.36319336 79.47984375 2.55029297 80.2421875 C6.68016992 96.30149769 16.757889 119.50525933 31 129 C31.81201172 130.88842773 31.81201172 130.88842773 32.4296875 133.18359375 C32.6654248 134.02414307 32.90116211 134.86469238 33.14404297 135.73071289 C33.38525879 136.62395264 33.62647461 137.51719238 33.875 138.4375 C35.80154442 145.25819656 37.89097018 151.66307032 41.1171875 158.00390625 C42 160 42 160 42 163 C27.42539111 159.95506997 14.36847483 148.22848922 3.3046875 138.8125 C1.16135831 136.9729601 1.16135831 136.9729601 -0.99389648 136.11865234 C-3.38157352 134.78722528 -4.09680893 133.66803706 -5.40234375 131.2890625 C-5.81540771 130.54446777 -6.22847168 129.79987305 -6.65405273 129.03271484 C-7.07759033 128.23816895 -7.50112793 127.44362305 -7.9375 126.625 C-8.37843994 125.81369629 -8.81937988 125.00239258 -9.27368164 124.16650391 C-12.61343424 117.93419326 -15.49966505 111.61611266 -18 105 C-18.28230469 104.34644531 -18.56460938 103.69289063 -18.85546875 103.01953125 C-23.93246046 90.93268296 -24.62888423 77.53157044 -24.9831543 64.60253906 C-25.06247262 62.00089804 -25.18984727 59.40430383 -25.31835938 56.8046875 C-25.74243447 45.40470223 -24.17528706 37.22261587 -19 27 C-18.58484131 26.13391113 -18.16968262 25.26782227 -17.74194336 24.37548828 C-16.69068441 22.23908096 -15.58347968 20.14930205 -14.4375 18.0625 C-13.89706055 17.04833008 -13.89706055 17.04833008 -13.34570312 16.01367188 C-12.25695947 13.99282442 -11.13745041 11.99380398 -10 10 C-9.57605957 9.24702637 -9.15211914 8.49405273 -8.71533203 7.71826172 C-8.28462402 6.98494629 -7.85391602 6.25163086 -7.41015625 5.49609375 C-7.02093994 4.82634521 -6.63172363 4.15659668 -6.23071289 3.46655273 C-5.82457764 2.98259033 -5.41844238 2.49862793 -5 2 C-4.01 2 -3.02 2 -2 2 C-1.34 1.34 -0.68 0.68 0 0 Z " fill="#5797CB" transform="translate(91,144)"/>
<path d="M0 0 C2.59026383 2.59026383 2.25303886 3.62008349 2.26069641 7.224823 C2.26778122 8.33246002 2.27486603 9.44009705 2.28216553 10.58129883 C2.27968811 11.80212158 2.27721069 13.02294434 2.2746582 14.28076172 C2.27976913 15.56209991 2.28488007 16.84343811 2.29014587 18.16360474 C2.30356525 21.68433261 2.30411119 25.20495333 2.30158257 28.72570181 C2.3005146 31.66309195 2.3053919 34.60046025 2.310188 37.53784573 C2.32129387 44.46779259 2.32171489 51.39768526 2.31567383 58.32763672 C2.30963538 65.47926441 2.32193919 72.63069528 2.3432439 79.78228939 C2.36085403 85.91908457 2.3668621 92.05581708 2.36360615 98.19263661 C2.36179181 101.85926161 2.36444414 105.52574632 2.37832069 109.19234848 C2.39321756 113.28184548 2.3839341 117.37094164 2.37231445 121.46044922 C2.37995819 122.67722351 2.38760193 123.8939978 2.39547729 125.14764404 C2.38846298 126.26092072 2.38144867 127.37419739 2.3742218 128.52120972 C2.37438954 129.4883383 2.37455729 130.45546688 2.37473011 131.45190239 C1.93985282 134.40899005 0.96601527 135.79304186 -1 138 C-5.875 137.125 -5.875 137.125 -7 136 C-7.09629597 134.25373476 -7.12187539 132.50354095 -7.12025452 130.75462341 C-7.12162918 129.61733795 -7.12300385 128.48005249 -7.12442017 127.30830383 C-7.12082489 126.04954941 -7.11722961 124.79079498 -7.11352539 123.49389648 C-7.11367142 122.17701843 -7.11381744 120.86014038 -7.1139679 119.50335693 C-7.11425587 115.88161732 -7.10835924 112.25991054 -7.10139394 108.63817859 C-7.0951603 104.85718116 -7.09455659 101.07618305 -7.09336853 97.29518127 C-7.09025524 90.1305571 -7.08204189 82.9659481 -7.07201904 75.80133063 C-7.06085782 67.64668838 -7.05534743 59.49204543 -7.05032361 51.33739746 C-7.03985928 34.55825607 -7.02225989 17.77912997 -7 1 C-4.48718205 -0.25640898 -2.78302919 -0.20872719 0 0 Z " fill="#86B752" transform="translate(363,174)"/>
<path d="M0 0 C4.55555556 0.55555556 4.55555556 0.55555556 6 2 C6.11728215 3.49160262 6.16724975 4.98857753 6.18945312 6.48461914 C6.21452942 7.91729881 6.21452942 7.91729881 6.2401123 9.37892151 C6.25368774 10.42047897 6.26726318 11.46203644 6.28125 12.53515625 C6.30886414 14.13598305 6.30886414 14.13598305 6.33703613 15.76914978 C6.39599134 19.20020848 6.44865585 22.63131948 6.5 26.0625 C6.5515249 29.46868124 6.60456106 32.87479789 6.66296387 36.28086853 C6.69934785 38.40333065 6.73184077 40.5258641 6.7598877 42.64845276 C6.83109442 46.81067856 6.92262489 50.89102307 7.52294922 55.01367188 C8.23591554 60.0862128 8.03549594 65.13675482 7.9140625 70.24609375 C7.89282318 71.29781265 7.87158386 72.34953156 7.84970093 73.43312073 C7.80367712 75.64094023 7.75477077 77.84870134 7.703125 80.05639648 C7.62469065 83.45088801 7.5578246 86.84547381 7.4921875 90.24023438 C7.44599822 92.38803569 7.39914701 94.53582289 7.3515625 96.68359375 C7.33171295 97.70327744 7.3118634 98.72296112 7.29141235 99.77354431 C7.26823944 100.70864334 7.24506653 101.64374237 7.22119141 102.60717773 C7.20263092 103.43354233 7.18407043 104.25990692 7.16494751 105.11131287 C7 107 7 107 6 108 C0.71718292 108.4593754 0.71718292 108.4593754 -1.67303467 106.92837524 C-3.70653436 103.9732487 -3.36638797 101.45126599 -3.35644531 97.89599609 C-3.35848969 97.17493683 -3.36053406 96.45387756 -3.36264038 95.71096802 C-3.36565814 93.31486987 -3.34710427 90.91945474 -3.328125 88.5234375 C-3.32506171 86.83883839 -3.32318993 85.15423674 -3.32244873 83.46963501 C-3.31783537 79.92025172 -3.30339805 76.37109395 -3.28125 72.82177734 C-3.25343739 68.34954893 -3.24218616 63.87749938 -3.23741913 59.40519333 C-3.21915104 43.63522817 -3.14694594 27.86364993 -2.609375 12.1015625 C-2.579505 11.08105804 -2.54963501 10.06055359 -2.51885986 9.00912476 C-2.48137634 8.09684113 -2.44389282 7.1845575 -2.40527344 6.24462891 C-2.37544373 5.46471588 -2.34561401 4.68480286 -2.31488037 3.8812561 C-2 2 -2 2 0 0 Z " fill="#7DB350" transform="translate(328,192)"/>
<path d="M0 0 C2.375 0.6875 2.375 0.6875 3.375 1.6875 C3.47995122 3.94656818 3.51357388 6.20896412 3.52026367 8.47045898 C3.52530159 9.53387512 3.52530159 9.53387512 3.53044128 10.61877441 C3.53997816 12.97373178 3.54189576 15.32861825 3.54296875 17.68359375 C3.54617945 19.31405162 3.54954337 20.94450919 3.55305481 22.57496643 C3.55905295 25.99733142 3.56089401 29.41967113 3.56030273 32.84204102 C3.56020108 37.23509232 3.57385393 41.62798213 3.59107494 46.02099514 C3.60217424 49.38980356 3.60422258 52.75857269 3.60369301 56.12739754 C3.60487623 57.74737162 3.60931707 59.36734661 3.61702538 60.98730278 C3.62678367 63.25003355 3.62396393 65.51241046 3.61791992 67.77514648 C3.61934494 69.06452621 3.62076996 70.35390594 3.62223816 71.68235779 C3.375 74.6875 3.375 74.6875 1.375 76.6875 C-1.125 77 -1.125 77 -3.625 76.6875 C-6.08208922 73.00186618 -5.88365574 71.16769142 -5.8996582 66.76928711 C-5.90476913 66.06980453 -5.90988007 65.37032196 -5.91514587 64.64964294 C-5.92904462 62.33795617 -5.92808537 60.02656733 -5.92578125 57.71484375 C-5.92966719 56.10966378 -5.93400165 54.50448485 -5.93876648 52.89930725 C-5.94622866 49.53594629 -5.94593683 46.17269032 -5.94067383 42.80932617 C-5.93487008 38.49246096 -5.95183171 34.17602352 -5.9750185 29.85922909 C-5.98972383 26.54530818 -5.9906321 23.23149116 -5.98750877 19.91754341 C-5.98802331 18.32547722 -5.99328566 16.73340542 -6.00332069 15.14137077 C-6.01561038 12.91940027 -6.00894018 10.69827458 -5.99731445 8.47631836 C-5.99794388 7.21073593 -5.9985733 5.9451535 -5.9992218 4.64122009 C-5.87572861 3.66649246 -5.75223541 2.69176483 -5.625 1.6875 C-2.625 -0.3125 -2.625 -0.3125 0 0 Z " fill="#85BC3E" transform="translate(300.625,209.3125)"/>
<path d="M0 0 C2.5 0.25 2.5 0.25 4.5 2.25 C4.75396729 4.79284668 4.75396729 4.79284668 4.75878906 8.04492188 C4.76509338 9.2595813 4.77139771 10.47424072 4.77789307 11.72570801 C4.7738446 13.04341187 4.76979614 14.36111572 4.765625 15.71875 C4.76697176 17.07873606 4.76891239 18.43872165 4.77142334 19.79870605 C4.77437409 22.65019307 4.77007864 25.50155487 4.76074219 28.35302734 C4.74934754 32.01182777 4.75590729 35.6703348 4.76788712 39.32912445 C4.77510712 42.13777892 4.77281717 44.94636359 4.76763153 47.75502014 C4.76564461 49.76144602 4.77172863 51.7678746 4.77789307 53.77429199 C4.77158875 54.98895142 4.76528442 56.20361084 4.75878906 57.45507812 C4.75640228 59.06485535 4.75640228 59.06485535 4.75396729 60.70715332 C4.5 63.25 4.5 63.25 2.5 65.25 C0 65.5 0 65.5 -2.5 65.25 C-5.18771538 62.56228462 -4.75321857 61.21213103 -4.75878906 57.45507812 C-4.76509338 56.2404187 -4.77139771 55.02575928 -4.77789307 53.77429199 C-4.7738446 52.45658813 -4.76979614 51.13888428 -4.765625 49.78125 C-4.76697176 48.42126394 -4.76891239 47.06127835 -4.77142334 45.70129395 C-4.77437409 42.84980693 -4.77007864 39.99844513 -4.76074219 37.14697266 C-4.74934754 33.48817223 -4.75590729 29.8296652 -4.76788712 26.17087555 C-4.77510712 23.36222108 -4.77281717 20.55363641 -4.76763153 17.74497986 C-4.76564461 15.73855398 -4.77172863 13.7321254 -4.77789307 11.72570801 C-4.77158875 10.51104858 -4.76528442 9.29638916 -4.75878906 8.04492188 C-4.75719788 6.97173706 -4.75560669 5.89855225 -4.75396729 4.79284668 C-4.40275658 1.27635054 -3.52457643 0.35245764 0 0 Z " fill="#83B84B" transform="translate(375.5,211.75)"/>
<path d="M0 0 C2.5 0.25 2.5 0.25 4.5 2.25 C4.74723816 4.60975647 4.74723816 4.60975647 4.74291992 7.60180664 C4.74599655 8.71959 4.74907318 9.83737335 4.75224304 10.98902893 C4.74505753 12.20050095 4.73787201 13.41197296 4.73046875 14.66015625 C4.72978142 16.51682167 4.72978142 16.51682167 4.7290802 18.41099548 C4.7252786 21.70358047 4.71225824 24.99597359 4.69561768 28.28851318 C4.68216164 31.64351647 4.68534184 34.9984863 4.68554688 38.35351562 C4.68063168 40.89323117 4.67480335 43.43294515 4.66796875 45.97265625 C4.66685593 47.1861525 4.6657431 48.39964874 4.66459656 49.6499176 C4.65821671 50.7645488 4.65183685 51.87917999 4.64526367 53.02758789 C4.64145187 54.01416885 4.63764008 55.00074982 4.63371277 56.01722717 C4.5 58.25 4.5 58.25 3.5 59.25 C0.13370749 59.39636054 -2.28419562 59.32193479 -5.5 58.25 C-5.83 54.95 -6.16 51.65 -6.5 48.25 C-6.17 48.25 -5.84 48.25 -5.5 48.25 C-5.49191315 47.67814972 -5.48382629 47.10629944 -5.47549438 46.51712036 C-5.38962052 40.58003001 -5.29012527 34.64328019 -5.18261719 28.70654297 C-5.14426866 26.4891531 -5.10942629 24.27169976 -5.078125 22.05419922 C-5.03260174 18.87183911 -4.97458681 15.68991818 -4.9140625 12.5078125 C-4.90251129 11.51194122 -4.89096008 10.51606995 -4.87905884 9.49002075 C-4.85918915 8.56921722 -4.83931946 7.6484137 -4.81884766 6.69970703 C-4.80552399 5.8869632 -4.79220032 5.07421936 -4.7784729 4.23684692 C-4.32943205 1.03303275 -3.12382947 0.31238295 0 0 Z " fill="#89B958" transform="translate(345.5,214.75)"/>
<path d="M0 0 C2.5 0.25 2.5 0.25 4.5 2.25 C4.69990227 5.09540142 4.77976976 7.84137784 4.765625 10.6875 C4.76753845 11.52337646 4.7694519 12.35925293 4.77142334 13.22045898 C4.77278536 14.98909811 4.76908776 16.75774723 4.76074219 18.52636719 C4.75004275 21.23915994 4.76063676 23.95129044 4.7734375 26.6640625 C4.77211591 28.3802098 4.76955352 30.09635669 4.765625 31.8125 C4.76967346 32.62710693 4.77372192 33.44171387 4.77789307 34.28100586 C4.72991928 40.02008072 4.72991928 40.02008072 2.5 42.25 C0 42.5 0 42.5 -2.5 42.25 C-5.10305892 39.64694108 -4.74824978 37.82721461 -4.77789307 34.28100586 C-4.7738446 33.46639893 -4.76979614 32.65179199 -4.765625 31.8125 C-4.76753845 30.97662354 -4.7694519 30.14074707 -4.77142334 29.27954102 C-4.77278536 27.51090189 -4.76908776 25.74225277 -4.76074219 23.97363281 C-4.75004275 21.26084006 -4.76063676 18.54870956 -4.7734375 15.8359375 C-4.77211591 14.1197902 -4.76955352 12.40364331 -4.765625 10.6875 C-4.76967346 9.87289307 -4.77372192 9.05828613 -4.77789307 8.21899414 C-4.71312904 0.4713129 -4.71312904 0.4713129 0 0 Z " fill="#86BC44" transform="translate(315.5,224.75)"/>
<path d="M0 0 C2.5 0.25 2.5 0.25 4.5 2.25 C4.75878906 5.3828125 4.75878906 5.3828125 4.765625 9.375 C4.76753845 10.0777002 4.7694519 10.78040039 4.77142334 11.50439453 C4.77278475 12.99056354 4.76909132 14.47674445 4.76074219 15.96289062 C4.75004154 18.24115646 4.76063839 20.51863377 4.7734375 22.796875 C4.7721159 24.23958508 4.76955349 25.68229466 4.765625 27.125 C4.76336914 28.44242188 4.76111328 29.75984375 4.75878906 31.1171875 C4.5 34.25 4.5 34.25 2.5 36.25 C0 36.5 0 36.5 -2.5 36.25 C-5.40441659 33.34558341 -4.75867736 31.18242155 -4.765625 27.125 C-4.76753845 26.4222998 -4.7694519 25.71959961 -4.77142334 24.99560547 C-4.77278475 23.50943646 -4.76909132 22.02325555 -4.76074219 20.53710938 C-4.75004154 18.25884354 -4.76063839 15.98136623 -4.7734375 13.703125 C-4.7721159 12.26041492 -4.76955349 10.81770534 -4.765625 9.375 C-4.76336914 8.05757812 -4.76111328 6.74015625 -4.75878906 5.3828125 C-4.44186175 1.5461981 -3.9224597 0.39224597 0 0 Z " fill="#83B54A" transform="translate(391.5,226.75)"/>
<path d="M0 0 C2.375 0.6875 2.375 0.6875 3.375 1.6875 C3.59289186 5.80327589 3.56079188 9.92214923 3.56030273 14.04321289 C3.56248734 16.11300264 3.58063491 18.18225793 3.59960938 20.25195312 C3.60250977 22.19811523 3.60250977 22.19811523 3.60546875 24.18359375 C3.60957764 25.38169678 3.61368652 26.5797998 3.61791992 27.81420898 C3.375 30.6875 3.375 30.6875 1.375 32.6875 C-1.125 32.9375 -1.125 32.9375 -3.625 32.6875 C-6.99051496 29.32198504 -5.92219582 24.87260281 -5.94726562 20.30078125 C-5.94400269 19.28878662 -5.94400269 19.28878662 -5.94067383 18.25634766 C-5.93751166 16.19510144 -5.96097703 14.1352876 -5.98632812 12.07421875 C-5.98697266 10.78128906 -5.98761719 9.48835937 -5.98828125 8.15625 C-5.99126221 6.96451172 -5.99424316 5.77277344 -5.99731445 4.54492188 C-5.87445068 3.60197266 -5.75158691 2.65902344 -5.625 1.6875 C-2.625 -0.3125 -2.625 -0.3125 0 0 Z " fill="#84BB41" transform="translate(285.625,230.3125)"/>
<path d="M0 0 C2.375 0.6875 2.375 0.6875 3.375 1.6875 C3.47995122 3.94656818 3.51357388 6.20896412 3.52026367 8.47045898 C3.52530159 9.53387512 3.52530159 9.53387512 3.53044128 10.61877441 C3.53997816 12.97373178 3.54189576 15.32861825 3.54296875 17.68359375 C3.54617945 19.31405162 3.54954337 20.94450919 3.55305481 22.57496643 C3.55905295 25.99733142 3.56089401 29.41967113 3.56030273 32.84204102 C3.56020108 37.23509232 3.57385393 41.62798213 3.59107494 46.02099514 C3.60217424 49.38980356 3.60422258 52.75857269 3.60369301 56.12739754 C3.60487623 57.74737162 3.60931707 59.36734661 3.61702538 60.98730278 C3.62678367 63.25003355 3.62396393 65.51241046 3.61791992 67.77514648 C3.61934494 69.06452621 3.62076996 70.35390594 3.62223816 71.68235779 C3.375 74.6875 3.375 74.6875 1.375 76.6875 C-1.125 77 -1.125 77 -3.625 76.6875 C-6.08208922 73.00186618 -5.88365574 71.16769142 -5.8996582 66.76928711 C-5.90476913 66.06980453 -5.90988007 65.37032196 -5.91514587 64.64964294 C-5.92904462 62.33795617 -5.92808537 60.02656733 -5.92578125 57.71484375 C-5.92966719 56.10966378 -5.93400165 54.50448485 -5.93876648 52.89930725 C-5.94622866 49.53594629 -5.94593683 46.17269032 -5.94067383 42.80932617 C-5.93487008 38.49246096 -5.95183171 34.17602352 -5.9750185 29.85922909 C-5.98972383 26.54530818 -5.9906321 23.23149116 -5.98750877 19.91754341 C-5.98802331 18.32547722 -5.99328566 16.73340542 -6.00332069 15.14137077 C-6.01561038 12.91940027 -6.00894018 10.69827458 -5.99731445 8.47631836 C-5.99794388 7.21073593 -5.9985733 5.9451535 -5.9992218 4.64122009 C-5.87572861 3.66649246 -5.75223541 2.69176483 -5.625 1.6875 C-2.625 -0.3125 -2.625 -0.3125 0 0 Z M-1.625 1.6875 C-3.92681627 3.55979032 -3.92681627 3.55979032 -3.87223816 6.57875061 C-3.87081314 7.81483566 -3.86938812 9.05092072 -3.86791992 10.32446289 C-3.86981827 11.00589859 -3.87171661 11.68733429 -3.87367249 12.38941956 C-3.87738345 14.64644805 -3.86667269 16.90315625 -3.85546875 19.16015625 C-3.85427713 20.72431907 -3.85382375 22.28848262 -3.8540802 23.85264587 C-3.85251484 27.13203403 -3.84422051 30.41131311 -3.83081055 33.69067383 C-3.81380659 37.90327672 -3.80999657 42.11575979 -3.81075573 46.32839298 C-3.81048439 49.55819349 -3.80500929 52.78796758 -3.79775429 56.01775932 C-3.79456282 57.57156614 -3.7925991 59.12537595 -3.79186058 60.67918587 C-3.78970285 62.84615351 -3.78097147 65.01299162 -3.77026367 67.17993164 C-3.76645187 68.4152211 -3.76264008 69.65051056 -3.75871277 70.92323303 C-3.93976485 73.5967741 -3.93976485 73.5967741 -2.625 74.6875 C-0.975 74.6875 0.675 74.6875 2.375 74.6875 C2.375 50.9275 2.375 27.1675 2.375 2.6875 C1.055 2.3575 -0.265 2.0275 -1.625 1.6875 Z " fill="#78B167" transform="translate(300.625,209.3125)"/>
<path d="M0 0 C2.5 0.25 2.5 0.25 4.5 2.25 C4.69990227 5.09540142 4.77976976 7.84137784 4.765625 10.6875 C4.76753845 11.52337646 4.7694519 12.35925293 4.77142334 13.22045898 C4.77278536 14.98909811 4.76908776 16.75774723 4.76074219 18.52636719 C4.75004275 21.23915994 4.76063676 23.95129044 4.7734375 26.6640625 C4.77211591 28.3802098 4.76955352 30.09635669 4.765625 31.8125 C4.76967346 32.62710693 4.77372192 33.44171387 4.77789307 34.28100586 C4.72991928 40.02008072 4.72991928 40.02008072 2.5 42.25 C0 42.5 0 42.5 -2.5 42.25 C-5.10305892 39.64694108 -4.74824978 37.82721461 -4.77789307 34.28100586 C-4.7738446 33.46639893 -4.76979614 32.65179199 -4.765625 31.8125 C-4.76753845 30.97662354 -4.7694519 30.14074707 -4.77142334 29.27954102 C-4.77278536 27.51090189 -4.76908776 25.74225277 -4.76074219 23.97363281 C-4.75004275 21.26084006 -4.76063676 18.54870956 -4.7734375 15.8359375 C-4.77211591 14.1197902 -4.76955352 12.40364331 -4.765625 10.6875 C-4.76967346 9.87289307 -4.77372192 9.05828613 -4.77789307 8.21899414 C-4.71312904 0.4713129 -4.71312904 0.4713129 0 0 Z M-2.5 2.25 C-2.5 14.46 -2.5 26.67 -2.5 39.25 C-0.85 39.58 0.8 39.91 2.5 40.25 C2.5 27.71 2.5 15.17 2.5 2.25 C0.85 2.25 -0.8 2.25 -2.5 2.25 Z " fill="#7EB565" transform="translate(315.5,224.75)"/>
<path d="M0 0 C1.02802734 -0.01224609 2.05605469 -0.02449219 3.11523438 -0.03710938 C4.58766602 -0.04000977 4.58766602 -0.04000977 6.08984375 -0.04296875 C6.99468506 -0.04707764 7.89952637 -0.05118652 8.83178711 -0.05541992 C11.0625 0.1875 11.0625 0.1875 13.0625 2.1875 C12.52678571 5.72321429 12.52678571 5.72321429 11.0625 7.1875 C9.43992456 7.2866657 7.81310169 7.31829777 6.1875 7.3203125 C5.20265625 7.32160156 4.2178125 7.32289063 3.203125 7.32421875 C2.16671875 7.32035156 1.1303125 7.31648437 0.0625 7.3125 C-1.49210937 7.31830078 -1.49210937 7.31830078 -3.078125 7.32421875 C-4.06296875 7.32292969 -5.0478125 7.32164062 -6.0625 7.3203125 C-6.97257812 7.31918457 -7.88265625 7.31805664 -8.8203125 7.31689453 C-10.9375 7.1875 -10.9375 7.1875 -11.9375 6.1875 C-12.0625 3.6875 -12.0625 3.6875 -11.9375 1.1875 C-9.51933834 -1.23066166 -3.24972181 0.00202981 0 0 Z " fill="#7FB44A" transform="translate(428.9375,242.8125)"/>
<path d="M0 0 C2.5 0.25 2.5 0.25 4.5 2.25 C4.69849071 4.79535141 4.77851775 7.20716759 4.75 9.75 C4.75773437 10.43964844 4.76546875 11.12929687 4.7734375 11.83984375 C4.75333293 16.99666707 4.75333293 16.99666707 2.5 19.25 C0 19.5 0 19.5 -2.5 19.25 C-4.99210439 16.75789561 -4.76015661 15.24639212 -4.7734375 11.83984375 C-4.76570313 11.15019531 -4.75796875 10.46054688 -4.75 9.75 C-4.75773437 9.06035156 -4.76546875 8.37070313 -4.7734375 7.66015625 C-4.74542341 0.47454234 -4.74542341 0.47454234 0 0 Z " fill="#82B747" transform="translate(406.5,236.75)"/>
<path d="M0 0 C0.78375 0.04125 1.5675 0.0825 2.375 0.125 C1.39904877 0.93339325 1.39904877 0.93339325 0.40338135 1.75811768 C-2.14229501 4.72862239 -2.11214707 6.12879253 -2.07910156 9.99511719 C-2.07879944 11.17603943 -2.07849731 12.35696167 -2.07818604 13.57366943 C-2.05754089 14.84357727 -2.03689575 16.11348511 -2.015625 17.421875 C-2.00996521 18.72578186 -2.00430542 20.02968872 -1.99847412 21.37310791 C-1.98323338 24.83232523 -1.94396662 28.29086606 -1.8996582 31.74981689 C-1.85867087 35.28233693 -1.84045582 38.81496674 -1.8203125 42.34765625 C-1.77746968 49.27371462 -1.70923815 56.1993248 -1.625 63.125 C-0.305 63.785 1.015 64.445 2.375 65.125 C0 65.25 0 65.25 -2.625 65.125 C-5.31271538 62.43728462 -4.87821857 61.08713103 -4.88378906 57.33007812 C-4.89009338 56.1154187 -4.89639771 54.90075928 -4.90289307 53.64929199 C-4.8988446 52.33158813 -4.89479614 51.01388428 -4.890625 49.65625 C-4.89197176 48.29626394 -4.89391239 46.93627835 -4.89642334 45.57629395 C-4.89937409 42.72480693 -4.89507864 39.87344513 -4.88574219 37.02197266 C-4.87434754 33.36317223 -4.88090729 29.7046652 -4.89288712 26.04587555 C-4.90010712 23.23722108 -4.89781717 20.42863641 -4.89263153 17.61997986 C-4.89064461 15.61355398 -4.89672863 13.6071254 -4.90289307 11.60070801 C-4.89658875 10.38604858 -4.89028442 9.17138916 -4.88378906 7.91992188 C-4.88219788 6.84673706 -4.88060669 5.77355225 -4.87896729 4.66784668 C-4.5187426 1.06109813 -3.62606829 0.17266992 0 0 Z " fill="#98BE6E" transform="translate(375.625,211.875)"/>
<path d="M0 0 C1.73849628 1.73849628 1.17216296 4.0786637 1.1875 6.4375 C1.20167969 7.42621094 1.21585937 8.41492188 1.23046875 9.43359375 C1 12 1 12 -1 14 C-3.5 13.875 -3.5 13.875 -6 13 C-8.17831524 10.09557968 -8.19715281 7.54875053 -8 4 C-8.99 3.67 -9.98 3.34 -11 3 C-10.01 3 -9.02 3 -8 3 C-7.67 2.01 -7.34 1.02 -7 0 C-4.31633121 -1.3418344 -2.84719317 -0.73004953 0 0 Z " fill="#82BD4B" transform="translate(272,240)"/>
<path d="M0 0 C2.375 0.6875 2.375 0.6875 3.375 1.6875 C3.46275605 3.83308827 3.48195219 5.98154421 3.47265625 8.12890625 C3.46943359 9.43408203 3.46621094 10.73925781 3.46289062 12.08398438 C3.45453401 13.4726569 3.44606905 14.86132877 3.4375 16.25 C3.43248666 17.64257656 3.42792347 19.03515481 3.42382812 20.42773438 C3.41199434 23.8476987 3.3955088 27.26757844 3.375 30.6875 C3.045 30.6875 2.715 30.6875 2.375 30.6875 C2.375 21.4475 2.375 12.2075 2.375 2.6875 C0.065 3.0175 -2.245 3.3475 -4.625 3.6875 C-4.625 12.5975 -4.625 21.5075 -4.625 30.6875 C-4.955 30.6875 -5.285 30.6875 -5.625 30.6875 C-5.69908587 26.59416095 -5.7535704 22.50108067 -5.78979492 18.40722656 C-5.80489358 17.01425378 -5.82537444 15.62132862 -5.85131836 14.22851562 C-5.88765122 12.22807115 -5.90311192 10.22728173 -5.91796875 8.2265625 C-5.9336792 7.02209473 -5.94938965 5.81762695 -5.96557617 4.57666016 C-5.85318604 3.6232373 -5.7407959 2.66981445 -5.625 1.6875 C-2.625 -0.3125 -2.625 -0.3125 0 0 Z " fill="#78B26C" transform="translate(285.625,230.3125)"/>
<path d="M0 0 C2.5 0.25 2.5 0.25 4.5 2.25 C4.64497985 4.83064129 4.68677545 7.29943884 4.625 9.875 C4.61597656 10.58140625 4.60695313 11.2878125 4.59765625 12.015625 C4.57407603 13.76056098 4.53820461 15.50532295 4.5 17.25 C4.17 17.25 3.84 17.25 3.5 17.25 C3.17 12.3 2.84 7.35 2.5 2.25 C-1.5 3.75 -1.5 3.75 -2.5 6.25 C-2.7275015 8.12056791 -2.90962811 9.99685958 -3.0625 11.875 C-3.14628906 12.87789062 -3.23007812 13.88078125 -3.31640625 14.9140625 C-3.37699219 15.68492187 -3.43757813 16.45578125 -3.5 17.25 C-3.83 17.25 -4.16 17.25 -4.5 17.25 C-4.55383848 14.79137599 -4.59359038 12.3339245 -4.625 9.875 C-4.64175781 9.17632812 -4.65851563 8.47765625 -4.67578125 7.7578125 C-4.69344267 5.92102514 -4.60303261 4.08398037 -4.5 2.25 C-2.5 0.25 -2.5 0.25 0 0 Z " fill="#9BBF74" transform="translate(406.5,236.75)"/>
<path d="M0 0 C0.66 0.33 1.32 0.66 2 1 C-3.79137777 7.55808499 -9.74700288 13.88004538 -16 20 C-16.66 19.67 -17.32 19.34 -18 19 C-16.12660182 16.95684406 -14.25133366 14.91545741 -12.375 12.875 C-11.59189453 12.02035156 -11.59189453 12.02035156 -10.79296875 11.1484375 C-7.28415811 7.33639631 -3.68571182 3.641439 0 0 Z " fill="#84B1D1" transform="translate(116,111)"/>
<path d="M0 0 C-1.31307249 2.91346593 -2.71181588 4.9450979 -5.00390625 7.1640625 C-5.57947266 7.72867188 -6.15503906 8.29328125 -6.74804688 8.875 C-7.34681641 9.4525 -7.94558594 10.03 -8.5625 10.625 C-9.75349384 11.78160151 -10.94240005 12.94035778 -12.12890625 14.1015625 C-12.65556885 14.61025879 -13.18223145 15.11895508 -13.72485352 15.64306641 C-15.1164217 16.99400105 -15.1164217 16.99400105 -16 19 C-16.66 19 -17.32 19 -18 19 C-15.53490226 13.57678498 -6.33467914 0 0 0 Z " fill="#4D84B2" transform="translate(194,187)"/>
<path d="M0 0 C0.66 0.33 1.32 0.66 2 1 C-4.27 7.27 -10.54 13.54 -17 20 C-17.66 19.67 -18.32 19.34 -19 19 C-12.66666667 12.66666667 -6.33333333 6.33333333 0 0 Z " fill="#E8F0F6" transform="translate(165,152)"/>
<path d="M0 0 C0.78375 0.04125 1.5675 0.0825 2.375 0.125 C-1.375 3.125 -1.375 3.125 -3.625 3.125 C-3.625 13.355 -3.625 23.585 -3.625 34.125 C-3.955 34.125 -4.285 34.125 -4.625 34.125 C-4.674377 29.60434572 -4.71070823 25.08384783 -4.73486328 20.56298828 C-4.74493118 19.02454902 -4.75858646 17.48612893 -4.77587891 15.94775391 C-4.80009317 13.73855867 -4.81147491 11.52961605 -4.8203125 9.3203125 C-4.83063507 8.63067413 -4.84095764 7.94103577 -4.85159302 7.23049927 C-4.85199478 5.52699094 -4.74691026 3.82414057 -4.625 2.125 C-2.625 0.125 -2.625 0.125 0 0 Z " fill="#97B96E" transform="translate(391.625,226.875)"/>
<path d="M0 0 C0.33 0 0.66 0 1 0 C1.33 8.58 1.66 17.16 2 26 C3.65 26.33 5.3 26.66 7 27 C6.67 27.66 6.34 28.32 6 29 C4.33388095 29.042721 2.66617115 29.04063832 1 29 C0 28 0 28 -0.11352539 25.31616211 C-0.10828857 24.14835205 -0.10305176 22.98054199 -0.09765625 21.77734375 C-0.09443359 20.51728516 -0.09121094 19.25722656 -0.08789062 17.95898438 C-0.07953403 16.61848891 -0.07106907 15.27799412 -0.0625 13.9375 C-0.0574866 12.59310058 -0.05292342 11.2486994 -0.04882812 9.90429688 C-0.03699488 6.60282059 -0.02050971 3.30143197 0 0 Z " fill="#80B758" transform="translate(281,234)"/>
<path d="M0 0 C0.66 0.33 1.32 0.66 2 1 C0.04761147 3.00612399 -1.91137822 5.00492433 -3.875 7 C-4.43058594 7.57234375 -4.98617187 8.1446875 -5.55859375 8.734375 C-7.00134404 10.19450782 -8.4974374 11.60149298 -10 13 C-10.66 13 -11.32 13 -12 13 C-12 13.66 -12 14.32 -12 15 C-12.66 14.67 -13.32 14.34 -14 14 C-9.67106815 8.81580806 -5.23435005 4.27293882 0 0 Z " fill="#588AB4" transform="translate(187,273)"/>
<path d="M0 0 C0.33 0.66 0.66 1.32 1 2 C-1.97 1.505 -1.97 1.505 -5 1 C-5.33 4.63 -5.66 8.26 -6 12 C-8.1519437 8.77208445 -8.20086443 7.71599191 -8 4 C-8.99 3.67 -9.98 3.34 -11 3 C-10.01 3 -9.02 3 -8 3 C-7.67 2.01 -7.34 1.02 -7 0 C-4.30234372 -1.34882814 -2.84835666 -0.80338265 0 0 Z " fill="#80B477" transform="translate(272,240)"/>
<path d="M0 0 C0.33 0 0.66 0 1 0 C1 7.92 1 15.84 1 24 C0.67 24 0.34 24 0 24 C0 18.06 0 12.12 0 6 C-0.66 6 -1.32 6 -2 6 C-1.125 1.125 -1.125 1.125 0 0 Z " fill="#4683B5" transform="translate(66,189)"/>
<path d="M0 0 C0.99 0.33 1.98 0.66 3 1 C1.38050958 2.50594681 -0.24575974 4.00460668 -1.875 5.5 C-3.23238281 6.75296875 -3.23238281 6.75296875 -4.6171875 8.03125 C-7 10 -7 10 -9 10 C-7.63491499 6.88271632 -6.13080302 4.91336262 -3.5625 2.6875 C-2.96566406 2.15511719 -2.36882812 1.62273437 -1.75390625 1.07421875 C-1.17511719 0.71972656 -0.59632813 0.36523438 0 0 Z " fill="#5486B2" transform="translate(227,241)"/>
<path d="M0 0 C1.32 0 2.64 0 4 0 C4.2475 0.61875 4.495 1.2375 4.75 1.875 C6.20628639 4.35068687 7.37812506 4.95125002 10 6 C6.85375007 6.26218749 5.38162983 6.24754367 2.6875 4.5 C2.130625 4.005 1.57375 3.51 1 3 C1 5.64 1 8.28 1 11 C0.67 11 0.34 11 0 11 C0 7.37 0 3.74 0 0 Z " fill="#407D99" transform="translate(261,249)"/>
<path d="M0 0 C0.66 0 1.32 0 2 0 C0.83857315 4.35535069 -0.07699505 6.64619703 -4 9 C-3.4739075 5.21213403 -2.61896089 2.82847776 0 0 Z " fill="#6B9EC4" transform="translate(91,139)"/>
<path d="M0 0 C0.66 0 1.32 0 2 0 C2.2236337 1.41433206 2.42826476 2.83167618 2.625 4.25 C2.74101562 5.03890625 2.85703125 5.8278125 2.9765625 6.640625 C3.00319395 9.32152459 2.36592084 10.72694089 1 13 C0.67 13 0.34 13 0 13 C0 8.71 0 4.42 0 0 Z " fill="#BFD2E1" transform="translate(206,280)"/>
<path d="M0 0 C0.33 0.66 0.66 1.32 1 2 C1.66 2 2.32 2 3 2 C1.87548273 4.9719385 0.77706209 7.33440687 -1 10 C-1.125 2.25 -1.125 2.25 0 0 Z " fill="#D7E3ED" transform="translate(170,285)"/>
<path d="M0 0 C3.00617269 3.00617269 2.59585316 5.82381598 3 10 C2.01 9.67 1.02 9.34 0 9 C0 6.03 0 3.06 0 0 Z " fill="#6793B0" transform="translate(336,251)"/>
<path d="M0 0 C1.32 0.66 2.64 1.32 4 2 C1.03312999 3.64826111 -1.65626525 4.44271087 -5 5 C-3.35 3.35 -1.7 1.7 0 0 Z " fill="#D0DEE9" transform="translate(180,247)"/>
</svg>
